<svg xmlns="http://www.w3.org/2000/svg" width="818.407" height="455.42" viewBox="0 0 818.407 455.42">
  <g id="Grupo_323" data-name="Grupo 323" transform="translate(-5409.869 -21821.801)">
    <path id="Trazado_9996" data-name="Trazado 9996" d="M6228,21854.033v6.314s-128.226,27.162-202.144,48.43c-31.933,9.188-48.129,16.4-60.255,20.783-15.437,5.572-20.989,8.906-30.115,14.287-16.067,9.473-23.05,21.605-23.05,21.605a29.938,29.938,0,0,1-3.883-6c-.929-2.414,0-6.6,0-6.6s-.243-25.756,77.3-46.93c32.412-8.852,77.31-22.936,121.87-32.2C6169.516,21860.869,6228,21854.033,6228,21854.033Z" fill="#0a313c"/>
    <path id="Trazado_9997" data-name="Trazado 9997" d="M5764.974,21970.137v19.719s2.78,14.254,19.5,25.863,49.032,24.764,49.032,24.764l56.4,24.363a73.421,73.421,0,0,0,5.926-5.051,6.334,6.334,0,0,0,1.3-7.5c-.838-1.6-2.06-3.227-5.8-6.2-9.672-7.693-24.3-8.494-48.6-19.369s-29.578-10.76-48.6-24.129S5764.974,21970.137,5764.974,21970.137Z" transform="translate(2 -1)" fill="#0a313c"/>
    <path id="Trazado_9998" data-name="Trazado 9998" d="M6080.777,22070.139s.278,6.316.371,12.137,0,11.145,0,11.145-4.708,11.711-18.834,20.766-64.742,24.932-64.742,24.932-114.02,24.143-178,41.936-54.785,18.092-62.394,20.967-28.209,13.705-38.23,24.209-17.386,26.078-17.386,26.078-7.616-11.061-4.6-20.84,5.56-15.937,8.859-20,2.466-13.021,31.2-26.182,21.886-11.262,82.548-27.623,106.559-16.789,164.724-33.1,56.606-17.789,76.166-30.1S6080.777,22070.139,6080.777,22070.139Z" fill="#0a313c"/>
    <path id="Trazado_9995" data-name="Trazado 9995" d="M6228,21821.8v32.646s-84.467,13.566-167.618,32.762c-65.625,15.148-131.164,32.941-147.779,56.986-16.314,23.609,15.858,33.934,58.436,50.707,55.089,21.705,122.284,51.684,108.132,81.094-25.048,52.055-207.392,67.438-273.346,90.842-32.12,11.4-61.822,19.393-79.67,33.434-18.335,14.424-24.913,32.914-26,40.492-2.127,14.773,12.188,36.457,12.188,36.457H5409.869s19.86-57.383,67.128-101.2c34.093-31.605,88.268-50.277,132.8-62.8,105.783-29.75,269-27.039,287.349-54.566,13.507-20.26-87.412-27.045-127.978-79.2-11.108-20.766,15.454-36.7,34.771-47.328,33.329-22.3,115.478-44.109,215.39-68.576C6125.031,21837.662,6228,21821.8,6228,21821.8Z" fill="#032b37"/>
    <path id="Trazado_9999" data-name="Trazado 9999" d="M6228,21836.818s-99.062,18.52-173.937,35.785-76.294,14.77-129.527,35.328-95.1,38.635-92.13,64.639,149.8,46.9,163.084,81.729-58.447,47.887-120.73,59.828-141.488,12.365-217.7,33.055S5562.794,22276,5562.794,22276" fill="none" stroke="#1b3a43" stroke-width="3" stroke-dasharray="20"/>
  </g>
</svg>
