<svg xmlns="http://www.w3.org/2000/svg" width="411.925" height="187.364" viewBox="0 0 411.925 187.364">
  <g id="Grupo_325" data-name="Grupo 325" transform="translate(-161.02 -306.438)">
    <path id="Trazado_10000" data-name="Trazado 10000" d="M242.6,476.724,230.384,492.6h-43.3q-3.48,0-3.48,2.46c0,1.646,1.16,2.46,3.48,2.46h31.153q11.123,0,18.593,5.439,7.723,5.762,7.723,14.937,0,9.078-7.81,14.685-7.3,5.35-18.506,5.348H162.219l12.22-15.792h43.8a13.434,13.434,0,0,0,5.352-1.017q3.051-1.265,3.051-3.48,0-2.294-3.051-3.48a15.406,15.406,0,0,0-5.352-.851H187.088q-10.35,0-17.316-4.753-7.471-5.085-7.468-13.5,0-8.486,7.468-13.581,6.958-4.752,17.316-4.753Z" transform="translate(-0.565 -80.231)" fill="#00809d"/>
    <rect id="Rect치ngulo_176" data-name="Rect치ngulo 176" width="18.932" height="61.204" transform="translate(251.291 396.493)" fill="#00809d"/>
    <path id="Trazado_10001" data-name="Trazado 10001" d="M471.927,476.724l-30.308,31.151,28.948,30.052H446.374l-20.8-21.9-20.88,21.9H380.585l28.863-30.052-30.221-31.151H403.76l21.817,22.745,21.73-22.745Z" transform="translate(-102.809 -80.23)" fill="#00809d"/>
    <path id="Trazado_10002" data-name="Trazado 10002" d="M618.878,536.889,609.2,549.4H584.861q-12.643,0-20.941-7.028a22.135,22.135,0,0,1-8.311-17.649,21.03,21.03,0,0,1,8.205-17.212q8.2-6.583,21.047-6.591h34.018L609.2,513.489H584.861a15.526,15.526,0,0,0-10.222,3.33,10.548,10.548,0,0,0-4.037,8.5,10.2,10.2,0,0,0,4.037,8.343,15.849,15.849,0,0,0,10.222,3.224Z" transform="translate(-185.911 -91.629)" fill="#fff"/>
    <path id="Trazado_10003" data-name="Trazado 10003" d="M752.34,524.72a22.149,22.149,0,0,1-8.3,17.649q-8.3,7.028-20.945,7.028H708.508q-12.711,0-21.016-7.028a22.15,22.15,0,0,1-8.3-17.649,20.989,20.989,0,0,1,8.237-17.212q8.232-6.582,21.08-6.591h14.587q12.841,0,21.042,6.591a21.03,21.03,0,0,1,8.2,17.212m-29.245-11.231H708.508a15.632,15.632,0,0,0-10.29,3.329,10.546,10.546,0,0,0-4.034,8.5,10.177,10.177,0,0,0,4.034,8.376,16.09,16.09,0,0,0,10.29,3.19h14.587a16.084,16.084,0,0,0,10.286-3.19,10.18,10.18,0,0,0,4.038-8.376,10.513,10.513,0,0,0-4.067-8.5,15.686,15.686,0,0,0-10.256-3.329" transform="translate(-244.137 -91.629)" fill="#fff"/>
    <path id="Trazado_10004" data-name="Trazado 10004" d="M748.443,346.1c.007,0,.045-.022.113-.057s.173-.077.309-.139.294-.136.482-.23.407-.187.655-.306c.034,0,.06.01.09.013l.082.015c.031.01.053.01.083.017s.06.007.09.013c-.3.107-.565.2-.794.279s-.434.153-.591.211-.287.1-.377.134l-.143.049" transform="translate(-276.765 -18.342)" fill="#00597b"/>
    <path id="Trazado_10005" data-name="Trazado 10005" d="M685.728,322.7a6.136,6.136,0,0,1,.659.032c.2.021.4.047.569.079a2.9,2.9,0,0,1,.475.134,1.528,1.528,0,0,1,.361.188.537.537,0,0,1,.271.524,1.1,1.1,0,0,1-.4.616,4.857,4.857,0,0,1-1.01.627,10.77,10.77,0,0,1-1.521.565c-.316.09-.64.169-.96.235s-.637.124-.953.166-.621.075-.919.1-.588.029-.858.025a6.3,6.3,0,0,1-.656-.036,5.212,5.212,0,0,1-.576-.086,3.841,3.841,0,0,1-.471-.141,1.483,1.483,0,0,1-.343-.193.534.534,0,0,1-.23-.542,1.2,1.2,0,0,1,.44-.614,4.754,4.754,0,0,1,1.021-.614,9.867,9.867,0,0,1,1.507-.546c.309-.091.625-.17.931-.232s.628-.122.93-.162.61-.074.9-.1.572-.03.836-.026" transform="translate(-244.121 -7.661)" fill="#1e809f"/>
    <path id="Trazado_10006" data-name="Trazado 10006" d="M702.469,328.317c.226.09.433.172.61.236s.324.133.444.177.218.085.287.109a.387.387,0,0,1,.105.045c-.008,0-.06-.013-.158-.032s-.226-.039-.4-.068-.384-.073-.626-.111-.535-.1-.844-.151c-.03-.005-.06-.009-.09-.013s-.052-.007-.083-.017l-.082-.015c-.03,0-.056-.01-.09-.013-1.175-.2-2.7-.461-4.392-.735-1.676-.274-3.517-.557-5.352-.821-1.819-.263-3.631-.5-5.269-.676s-3.092-.3-4.233-.326c-.223,0-.429,0-.626,0s-.384.006-.549.017-.324.022-.463.041-.268.041-.373.066a3.372,3.372,0,0,0-1.83,1.512,13.769,13.769,0,0,0-1.427,2.953,34.66,34.66,0,0,0-1.051,3.51c-.294,1.154-.513,2.212-.659,2.978-.045.012-.094.015-.139.027l-.151.023a1.264,1.264,0,0,1-.155.028c-.049.005-.1.017-.154.024-.332-.9-.844-2.249-1.48-3.747-.618-1.461-1.357-3.058-2.151-4.512a19.08,19.08,0,0,0-2.463-3.644,3.89,3.89,0,0,0-2.591-1.507.165.165,0,0,0-.06,0h-.06a.209.209,0,0,0-.06.006.331.331,0,0,0-.06,0,20,20,0,0,0-4.723,1.469c-1.981.806-4.264,1.857-6.455,2.923-2.219,1.077-4.354,2.173-6,3.028s-2.809,1.488-3.02,1.6a48.256,48.256,0,0,1,5.257-3.936,88.989,88.989,0,0,1,13.619-7.311,128.483,128.483,0,0,1,22.1-7.205,209.859,209.859,0,0,1,33.167-4.761c-.376.055-2.455.37-5.48.867s-7,1.18-11.167,1.981c-4.188.8-8.587,1.717-12.455,2.689a53.5,53.5,0,0,0-9.382,3.036c-.505.245.105.817,1.4,1.58a61.138,61.138,0,0,0,5.661,2.8c2.365,1.066,5.032,2.19,7.5,3.2,2.527,1.039,4.82,1.949,6.327,2.542.03.011.06.024.087.036s.06.021.087.032.06.025.09.034.053.018.076.03" transform="translate(-228.306 -1.437)" fill="#1e809f"/>
    <path id="Trazado_10007" data-name="Trazado 10007" d="M700.869,362.126c.041-.009.076-.019.113-.03s.076-.019.114-.029l.113-.034c.03-.01.068-.017.105-.029-.03.143-.052.268-.071.382s-.034.207-.049.285-.023.14-.03.182a.406.406,0,0,0-.007.068.117.117,0,0,1-.023-.058c-.012-.035-.031-.088-.053-.154s-.053-.149-.09-.247-.076-.211-.121-.337" transform="translate(-254.351 -26.18)" fill="#00597b"/>
    <path id="Trazado_10008" data-name="Trazado 10008" d="M824.7,306.438h.226c.075,0,.143.005.222.005l.215.011.219.012a6.786,6.786,0,0,1,1.431.239,2.172,2.172,0,0,1,.859.422.584.584,0,0,1,.226.557,1.226,1.226,0,0,1-.505.631,4.309,4.309,0,0,1-.99.521,9.675,9.675,0,0,1-1.33.41,15.328,15.328,0,0,1-1.537.264,12.851,12.851,0,0,1-1.589.094l-.23,0-.226-.006c-.075,0-.146-.012-.222-.013l-.219-.012a6.565,6.565,0,0,1-1.431-.256,1.964,1.964,0,0,1-.832-.438.536.536,0,0,1-.169-.556,1.29,1.29,0,0,1,.535-.629,4.789,4.789,0,0,1,.994-.505,9.116,9.116,0,0,1,1.311-.393,14.47,14.47,0,0,1,1.491-.262,14.777,14.777,0,0,1,1.552-.1" transform="translate(-309.91)" fill="#00597b"/>
    <path id="Trazado_10009" data-name="Trazado 10009" d="M790.524,313.069c3.424.007,6.953.122,10.519.4,3.616.282,7.292.729,10.953,1.388a88.412,88.412,0,0,1,11.208,2.774,73.075,73.075,0,0,1,11.337,4.7c-.3-.083-1.947-.57-4.444-1.239-2.456-.666-5.717-1.5-9.31-2.311-3.518-.793-7.352-1.561-11.114-2.132a75.229,75.229,0,0,0-10.6-.934c-.212-.005-.422-.005-.633,0s-.414,0-.618.013-.41.007-.61.021-.4.019-.595.031a7.768,7.768,0,0,0-3.367,1.973,65.965,65.965,0,0,0-4.9,4.623c-1.8,1.842-3.642,3.847-5.292,5.68-1.691,1.88-3.156,3.567-4.1,4.67-.072,0-.143,0-.218,0s-.143,0-.211,0-.128,0-.2,0h-.2c.158-.755.354-1.77.519-2.862a28.147,28.147,0,0,0,.339-3.275,9.1,9.1,0,0,0-.218-2.693c-.2-.7-.557-1.172-1.122-1.273a.185.185,0,0,1-.053-.01c-.023,0-.045,0-.068,0s-.038-.005-.06-.005H777.4a19.941,19.941,0,0,0-4.188.815c-1.936.518-4.309,1.233-6.787,2.019-2.494.787-5.1,1.653-7.48,2.458s-4.542,1.557-6.1,2.1c-.023-.011-.053-.019-.076-.03s-.06-.023-.09-.034-.057-.022-.087-.032l-.087-.036c1.808-.851,4.561-2.167,7.627-3.655,3.013-1.463,6.3-3.1,9.277-4.633,2.915-1.506,5.521-2.921,7.276-4.015,1.732-1.073,2.636-1.836,2.188-2.06a1.671,1.671,0,0,0-.434-.134c-.188-.034-.414-.066-.678-.09s-.565-.04-.9-.054-.693-.019-1.085-.019c-1.657-.006-3.736.074-5.951.2-2.2.122-4.526.285-6.666.452s-4.083.337-5.537.465-2.425.228-2.606.247c.218-.045,1.386-.29,3.3-.625s4.565-.77,7.759-1.2,6.945-.847,11.058-1.16c4.128-.315,8.655-.521,13.4-.521" transform="translate(-278.678 -3.124)" fill="#00597b"/>
    <path id="Trazado_10010" data-name="Trazado 10010" d="M800.4,351.72a.768.768,0,0,1,.023-.087c.007-.053.03-.128.053-.223s.041-.207.075-.346.064-.284.1-.457c.053,0,.106.011.158.017s.105.007.159.01.113.01.166.013.113.007.173.012c-.151.173-.271.316-.381.446s-.207.241-.282.329-.135.16-.173.206-.06.077-.068.081" transform="translate(-301.247 -20.81)" fill="#00597b"/>
    <path id="Trazado_10011" data-name="Trazado 10011" d="M694.075,387.335l.859.113.64.081c.181.021.316.039.414.049s.147.019.158.021c-.011,0-.068,0-.166,0s-.245,0-.429-.007-.407-.008-.678-.012-.576-.01-.927-.013c.015-.018.023-.04.038-.058a.434.434,0,0,1,.03-.059c.008-.021.023-.039.031-.058s.018-.036.03-.054" transform="translate(-251.089 -38.115)" fill="#00597b"/>
    <path id="Trazado_10012" data-name="Trazado 10012" d="M803.445,374.176c-.041.012-.079.026-.121.034s-.079.022-.117.037-.082.025-.12.036-.076.019-.113.033c-.031-.169-.068-.318-.095-.448s-.049-.243-.068-.333a1.961,1.961,0,0,1-.049-.207c-.012-.053-.022-.077-.022-.081a.363.363,0,0,1,.052.07c.03.038.076.1.135.179s.132.171.211.286.188.247.305.393" transform="translate(-302.348 -31.477)" fill="#00597b"/>
    <path id="Trazado_10013" data-name="Trazado 10013" d="M580.792,381.63a4.923,4.923,0,0,1,1.152.2,1.81,1.81,0,0,1,.738.405.773.773,0,0,1,.245.58,1.29,1.29,0,0,1-.3.734,4.476,4.476,0,0,1-1.107.995,10.25,10.25,0,0,1-1.71.885,14.833,14.833,0,0,1-2.071.7,13.794,13.794,0,0,1-2.2.39c-.147.015-.287.027-.425.036s-.268.012-.4.012-.257.006-.377,0-.241,0-.354-.013a4.874,4.874,0,0,1-1.168-.215,1.687,1.687,0,0,1-.708-.427.784.784,0,0,1-.2-.607,1.474,1.474,0,0,1,.35-.746,4.744,4.744,0,0,1,1.152-.974,10.651,10.651,0,0,1,1.7-.866,15.977,15.977,0,0,1,2.026-.663,14.138,14.138,0,0,1,2.132-.382c.143-.012.278-.025.41-.034s.26-.011.388-.015.249,0,.369,0,.233.01.346.015" transform="translate(-193.593 -35.42)" fill="#5d9fbb"/>
    <path id="Trazado_10014" data-name="Trazado 10014" d="M623.434,360.156c-.294.352.489.764,1.943,1.192s3.613.886,6.026,1.322c2.448.445,5.16.876,7.7,1.252,2.569.382,4.945.708,6.674.94-.03.022-.052.048-.083.071s-.052.049-.083.072-.052.051-.083.079a.635.635,0,0,0-.083.077c-2.561-.035-6.524-.077-11.039-.094-4.471-.015-9.473-.006-14.211.069-4.7.076-9.16.217-12.636.456s-5.974.573-6.806,1.05a3.4,3.4,0,0,0-1.59,2.78,12.186,12.186,0,0,0,.421,4.083,32.242,32.242,0,0,0,1.307,3.953c.448,1.117.818,1.892.885,2.036a22.227,22.227,0,0,1-4.919-3.747,12.992,12.992,0,0,1-4.1-8.911c-.019-3.546,1.7-7.706,6.584-12.4,4.606-4.425,12-9.3,23.4-14.623-.237.158-1.548,1-3.375,2.256-1.857,1.271-4.267,2.991-6.662,4.859a57.551,57.551,0,0,0-6.644,5.914c-1.811,1.964-2.908,3.752-2.572,4.973a.094.094,0,0,0,.049.053.48.48,0,0,0,.109.043,1.23,1.23,0,0,0,.162.031c.068.01.143.016.23.02a61.845,61.845,0,0,0,7.645-.687c3.718-.477,8.365-1.146,13.179-1.884s9.8-1.527,14.206-2.242,8.241-1.352,10.757-1.774c.052-.008.105-.02.154-.025a1.07,1.07,0,0,0,.154-.029l.151-.022c.045-.012.094-.015.14-.026q.6-.1,1.073-.181c.309-.05.573-.094.783-.13s.377-.064.494-.085.177-.035.192-.035c-.015.005-.087.024-.2.056s-.294.082-.516.137-.49.136-.8.223l-1.077.293c-.038.012-.076.02-.105.029l-.113.033-.113.029c-.037.011-.071.021-.113.03-1.8.5-4.264,1.188-6.961,1.956-2.723.774-5.687,1.64-8.466,2.484-2.8.853-5.416,1.687-7.412,2.4a13.081,13.081,0,0,0-3.661,1.652" transform="translate(-203.415 -15.723)" fill="#5d9fbb"/>
    <path id="Trazado_10015" data-name="Trazado 10015" d="M748.914,394.108c-.007.006-.052.026-.139.073s-.207.109-.365.193-.354.194-.588.315-.49.269-.791.427c-.041-.009-.076-.018-.105-.028s-.072-.017-.106-.025l-.1-.026c-.034-.006-.064-.014-.106-.021.365-.145.689-.269.968-.38s.519-.205.716-.281.343-.135.444-.177.166-.064.173-.07" transform="translate(-275.903 -41.306)" fill="#00597b"/>
    <path id="Trazado_10016" data-name="Trazado 10016" d="M923.7,344.743a13.427,13.427,0,0,1,1.792.147,9.875,9.875,0,0,1,1.544.348,5.258,5.258,0,0,1,1.183.521,1.918,1.918,0,0,1,.693.682.926.926,0,0,1,.019.922,2.258,2.258,0,0,1-.9.853,6.967,6.967,0,0,1-1.676.685,13.358,13.358,0,0,1-2.282.413c-.166.015-.34.03-.5.041s-.34.019-.5.025-.332.01-.5.01-.327,0-.486-.006a14.987,14.987,0,0,1-1.83-.168,9.858,9.858,0,0,1-1.544-.373,4.707,4.707,0,0,1-1.153-.546,1.792,1.792,0,0,1-.64-.689.949.949,0,0,1,.064-.917,2.578,2.578,0,0,1,.942-.829,7.313,7.313,0,0,1,1.646-.65,12.8,12.8,0,0,1,2.207-.4l.49-.04c.158-.007.32-.019.482-.026s.324-.01.482-.01.317,0,.475.006" transform="translate(-356.096 -18.044)" fill="#1e809f"/>
    <path id="Trazado_10017" data-name="Trazado 10017" d="M833.984,329.124a80.857,80.857,0,0,1,8.03,2.116,57.935,57.935,0,0,1,14.1,6.414c4.7,3.124,8.523,7.29,9.058,12.685.565,5.821-2.667,13.177-12.889,22.32.151-.286.987-1.863,1.974-4.126a53.215,53.215,0,0,0,2.795-7.985,21.565,21.565,0,0,0,.73-8.23,7.854,7.854,0,0,0-3.6-5.862.447.447,0,0,0-.139-.055,1.391,1.391,0,0,0-.2-.049c-.082-.013-.169-.021-.271-.032s-.211-.011-.332-.015a77.211,77.211,0,0,0-9.288.8c-4.317.535-9.59,1.292-15.013,2.117s-11.009,1.711-15.939,2.519-9.217,1.52-12.03,1.994c-.06.01-.121.021-.178.034s-.116.015-.173.026-.109.023-.166.031a1.4,1.4,0,0,0-.162.026c-.452.075-.851.147-1.2.2s-.64.11-.882.153-.421.072-.557.094-.2.032-.211.036c.015,0,.091-.025.219-.064s.316-.09.549-.162.527-.15.866-.25.719-.213,1.145-.339c.038-.015.076-.022.113-.034s.075-.025.12-.036.079-.024.117-.038.079-.023.121-.034c1.909-.566,4.493-1.344,7.284-2.206s5.763-1.8,8.5-2.716,5.206-1.785,7.013-2.52,2.938-1.318,2.983-1.657-1.2-.716-3.2-1.093c-1.982-.371-4.7-.741-7.638-1.09-2.908-.343-6.019-.657-8.847-.929-2.806-.268-5.337-.486-7.13-.64-.06,0-.113,0-.173-.012l-.166-.013c-.053,0-.106-.01-.158-.01s-.105-.013-.159-.017c-.327-.028-.621-.051-.88-.072s-.475-.039-.656-.052-.313-.024-.414-.03-.151-.01-.159-.013c.008,0,.06,0,.159,0l.418,0c.184,0,.4,0,.666,0l.911-.01h.2c.068,0,.135,0,.2,0s.143,0,.211,0,.146,0,.218,0c2.554-.022,6.546-.068,11.178-.154,4.678-.079,10-.2,15.111-.37,5.156-.171,10.079-.391,13.842-.678,3.781-.284,6.368-.636,6.821-1.055.542-.5-.008-1.314-1.13-2.254a32.449,32.449,0,0,0-4.467-2.947c-1.675-.956-3.42-1.849-4.764-2.522-1.33-.663-2.294-1.111-2.467-1.188" transform="translate(-299.589 -10.689)" fill="#1e809f"/>
    <path id="Trazado_10018" data-name="Trazado 10018" d="M629.471,416.915c2.286.253,5.281.358,8.512.379,3.255.024,6.738-.045,9.977-.145,3.258-.1,6.26-.241,8.523-.354s3.782-.211,4.057-.226c-.335.076-2.2.516-5.224,1.087s-7.246,1.271-12.256,1.866-10.78,1.087-16.922,1.235a133.626,133.626,0,0,1-18.745-.781,78.008,78.008,0,0,1-12.576-2.467,43.062,43.062,0,0,1-10.376-4.424,23.561,23.561,0,0,1-7.123-6.482,18.046,18.046,0,0,1-3.16-8.437c.128.147.847.966,2.072,2.147a53.34,53.34,0,0,0,5.281,4.456,47.5,47.5,0,0,0,8.256,4.936,34.134,34.134,0,0,0,10.6,3.074q.372.037.746.068c.249.021.5.032.738.047.256.015.505.019.754.025s.5.007.746,0c.964-.01,3.315-1.465,6.373-3.718,2.987-2.2,6.6-5.122,10.211-8.156,3.5-2.944,6.987-5.979,9.955-8.6,2.877-2.55,5.288-4.727,6.794-6.092a.631.631,0,0,1,.083-.077l.082-.079c.03-.023.057-.049.083-.071s.053-.049.083-.072c.218-.2.415-.384.588-.537s.308-.285.422-.39.207-.188.271-.246l.1-.093s-.023.041-.056.1-.087.152-.151.266-.147.256-.237.417-.192.353-.309.564c-.011.019-.019.037-.03.054s-.023.038-.03.058a.433.433,0,0,0-.03.058c-.015.019-.023.04-.038.059-.52.949-1.213,2.258-1.947,3.719-.742,1.484-1.518,3.13-2.166,4.706a23.47,23.47,0,0,0-1.416,4.326c-.218,1.2-.113,2.052.5,2.267.019.007.038.011.061.019a.355.355,0,0,0,.067.017c.023.006.045.007.075.013s.053.006.083.01a20.956,20.956,0,0,0,5.5-1.132c2.6-.755,5.789-1.813,9.1-2.97,3.281-1.152,6.663-2.4,9.707-3.538,3.013-1.134,5.683-2.162,7.593-2.9a.626.626,0,0,0,.1.053c.03.015.06.035.1.054s.064.032.1.049a.862.862,0,0,0,.109.053c-2.233,1.205-5.744,3.1-9.781,5.333-4.121,2.28-8.81,4.93-13.25,7.531-4.55,2.67-8.835,5.3-11.917,7.42-3.149,2.169-5.017,3.8-4.625,4.388a1.217,1.217,0,0,0,.467.367,4.084,4.084,0,0,0,.844.31,11.461,11.461,0,0,0,1.187.258c.445.074.945.14,1.488.2" transform="translate(-194.651 -36.915)" fill="#8dbbd1"/>
    <path id="Trazado_10019" data-name="Trazado 10019" d="M625.252,452.76c.1.013.2.025.294.04s.185.032.279.053l.275.058c.087.023.177.045.26.07a3.515,3.515,0,0,1,1.566.87,1.846,1.846,0,0,1,.543,1.277,2.74,2.74,0,0,1-.5,1.527,6.609,6.609,0,0,1-1.582,1.612,11.925,11.925,0,0,1-2.1,1.228,14.319,14.319,0,0,1-2.391.87,14.956,14.956,0,0,1-2.452.443,10.232,10.232,0,0,1-2.275-.032c-.105-.011-.2-.026-.3-.043l-.287-.058c-.094-.021-.188-.044-.279-.068s-.181-.053-.268-.081a3.332,3.332,0,0,1-1.541-.93,1.814,1.814,0,0,1-.436-1.324,2.982,2.982,0,0,1,.625-1.536,7.047,7.047,0,0,1,1.646-1.567A11.725,11.725,0,0,1,618.389,454a14.3,14.3,0,0,1,2.306-.82,13.759,13.759,0,0,1,2.358-.424,10.168,10.168,0,0,1,2.2.007" transform="translate(-213.444 -68.91)" fill="#8dbbd1"/>
    <path id="Trazado_10020" data-name="Trazado 10020" d="M848.547,432.1q.656.059,1.266.17a11.538,11.538,0,0,1,1.186.293,8.142,8.142,0,0,1,1.074.409,6.418,6.418,0,0,1,.935.525,3.5,3.5,0,0,1,1.258,1.4,2.144,2.144,0,0,1,.086,1.537,3.4,3.4,0,0,1-1.035,1.5,7.248,7.248,0,0,1-2.124,1.258,11.441,11.441,0,0,1-1.491.488,13.713,13.713,0,0,1-1.59.3,14.1,14.1,0,0,1-1.627.119,13.284,13.284,0,0,1-1.6-.066,11.629,11.629,0,0,1-1.311-.192,10.68,10.68,0,0,1-1.2-.315,9.034,9.034,0,0,1-1.077-.443,7.3,7.3,0,0,1-.907-.554,3.224,3.224,0,0,1-1.134-1.446,2.156,2.156,0,0,1,.041-1.535A3.629,3.629,0,0,1,840.4,434.1a7.761,7.761,0,0,1,2.1-1.19,11.351,11.351,0,0,1,1.439-.452,12.863,12.863,0,0,1,1.522-.288,15.142,15.142,0,0,1,1.551-.115,14.7,14.7,0,0,1,1.529.045" transform="translate(-319.493 -59.185)" fill="#5d9fbb"/>
    <path id="Trazado_10021" data-name="Trazado 10021" d="M793.163,382.12a20.947,20.947,0,0,1-2.754,6.186c-2.192,3.557-6.139,8.371-13.1,13.422-7.288,5.287-17.818,10.805-32.6,15.15-15.1,4.437-34,7.47-56.5,7.57.633-.093,4.154-.6,9.3-1.478s11.879-2.1,18.955-3.618c7.04-1.512,14.373-3.3,20.689-5.3,6.249-1.974,11.458-4.13,14.372-6.383.679-.525-.753-1.969-3.382-3.875-2.561-1.854-6.215-4.122-10.1-6.4-3.755-2.2-7.717-4.4-11.175-6.281-3.349-1.821-6.252-3.35-8.079-4.306a1.156,1.156,0,0,1-.109-.053c-.034-.016-.068-.035-.1-.049s-.068-.039-.1-.054a.681.681,0,0,1-.1-.052c-.271-.14-.512-.262-.719-.37s-.38-.2-.524-.273-.256-.131-.328-.167a1.372,1.372,0,0,0-.132-.07c.015.006.076.021.185.051s.271.068.474.115.448.117.746.188.629.156,1,.252c.042.008.072.016.106.022l.1.026c.034.007.068.019.106.025s.064.019.105.028c1.424.35,3.3.8,5.423,1.292,2.151.5,4.558,1.037,7,1.547,2.474.52,4.979,1.011,7.276,1.4,2.32.391,4.422.688,6.053.8.316.022.613.036.893.044s.535.01.772,0a6.332,6.332,0,0,0,.645-.047,3.361,3.361,0,0,0,.5-.095c.889-.246,1.446-1.164,1.762-2.449a17.436,17.436,0,0,0,.332-4.556,46.764,46.764,0,0,0-.452-4.862c-.218-1.486-.46-2.8-.641-3.721a1.41,1.41,0,0,1,.162-.026c.057-.007.113-.023.165-.031s.116-.019.173-.026.117-.025.177-.034c.832,1.087,2.169,2.793,3.811,4.784,1.691,2.051,3.729,4.428,5.891,6.739a70.121,70.121,0,0,0,6.765,6.483c2.237,1.823,4.263,3.045,5.732,3.15a.642.642,0,0,0,.1.009c.033,0,.064,0,.1,0h.094c.026,0,.064-.006.094-.006a15.251,15.251,0,0,0,6.1-2.54,63.954,63.954,0,0,0,6.8-4.995c2.12-1.75,4.034-3.476,5.442-4.8,1.386-1.3,2.3-2.215,2.467-2.381" transform="translate(-248.392 -32.62)" fill="#5d9fbb"/>
    <path id="Trazado_10024" data-name="Trazado 10024" d="M171.087,636.207l-1.042.7a4.011,4.011,0,0,0-3.4-1.75,4.4,4.4,0,0,0,0,8.792,4.006,4.006,0,0,0,3.4-1.743l1.011.747a5.205,5.205,0,0,1-4.411,2.2,5.6,5.6,0,1,1,0-11.2,5.123,5.123,0,0,1,4.442,2.256" transform="translate(0 -154.308)" fill="#fff"/>
    <path id="Trazado_10025" data-name="Trazado 10025" d="M190.776,644.458a3.879,3.879,0,1,1-3.882-3.828,3.773,3.773,0,0,1,3.882,3.828m-6.574,0a2.692,2.692,0,1,0,2.692-2.738,2.644,2.644,0,0,0-2.692,2.738" transform="translate(-10.365 -157.455)" fill="#fff"/>
    <path id="Trazado_10026" data-name="Trazado 10026" d="M208.487,643.579v4.567h-1.159V643.96a1.989,1.989,0,0,0-2.124-2.225,2.169,2.169,0,0,0-2.257,2.257v4.154h-1.167v-7.367h1.151v1.05a2.912,2.912,0,0,1,2.482-1.2,2.852,2.852,0,0,1,3.073,2.949" transform="translate(-19.205 -157.455)" fill="#fff"/>
    <path id="Trazado_10027" data-name="Trazado 10027" d="M223.8,642.349a4.605,4.605,0,0,0-2.412-.692c-1.05,0-1.743.444-1.743,1.16,0,.614.537.918,1.5,1.035l.872.108c1.564.2,2.474.849,2.474,2.055,0,1.4-1.26,2.279-3.244,2.279a5.175,5.175,0,0,1-3.073-.94l.537-.872a3.881,3.881,0,0,0,2.552.8c1.245,0,2.031-.412,2.031-1.19,0-.592-.5-.949-1.541-1.074l-.879-.1c-1.657-.2-2.435-.941-2.435-2.039,0-1.393,1.175-2.232,2.941-2.232a5.393,5.393,0,0,1,2.925.8Z" transform="translate(-26.928 -157.463)" fill="#fff"/>
    <path id="Trazado_10028" data-name="Trazado 10028" d="M238.135,639.874h-3.182v3.719c0,1.152.607,1.657,1.463,1.657a2.68,2.68,0,0,0,1.548-.521l.545.879a3.556,3.556,0,0,1-2.186.731c-1.587,0-2.528-.872-2.528-2.723v-3.742h-1.61v-1.05h1.61v-2.342h1.159v2.342h3.182Z" transform="translate(-33.529 -155.501)" fill="#fff"/>
    <path id="Trazado_10029" data-name="Trazado 10029" d="M252,640.879l-.28,1.144a2.822,2.822,0,0,0-1.276-.3,2.045,2.045,0,0,0-1.976,2.3v4.123h-1.159v-7.367h1.151v1.034a2.576,2.576,0,0,1,2.186-1.182,3.169,3.169,0,0,1,1.354.249" transform="translate(-40.655 -157.455)" fill="#fff"/>
    <path id="Trazado_10030" data-name="Trazado 10030" d="M265.9,645.2a3.348,3.348,0,0,1-6.691,0v-4.295h1.159v4.186a2.183,2.183,0,1,0,4.365,0v-4.186H265.9Z" transform="translate(-46.264 -157.587)" fill="#fff"/>
    <path id="Trazado_10031" data-name="Trazado 10031" d="M278.059,635.232a.809.809,0,0,1-.825.817.821.821,0,0,1,0-1.642.815.815,0,0,1,.825.825m-.241,9.982H276.65v-7.368h1.167Z" transform="translate(-54.369 -154.523)" fill="#fff"/>
    <path id="Trazado_10032" data-name="Trazado 10032" d="M296.469,643.579v4.567H295.31V643.96a1.991,1.991,0,0,0-2.132-2.225,2.168,2.168,0,0,0-2.256,2.257v4.154h-1.159V643.96a1.989,1.989,0,0,0-2.124-2.225,2.169,2.169,0,0,0-2.257,2.257v4.154h-1.167v-7.367h1.151v1.05a3.206,3.206,0,0,1,5.244.35,3,3,0,0,1,2.778-1.548,2.854,2.854,0,0,1,3.081,2.949" transform="translate(-58.044 -157.455)" fill="#fff"/>
    <path id="Trazado_10033" data-name="Trazado 10033" d="M319.079,644.458a3.879,3.879,0,1,1-3.882-3.828,3.773,3.773,0,0,1,3.882,3.828m-6.574,0a2.692,2.692,0,1,0,2.692-2.738,2.644,2.644,0,0,0-2.692,2.738" transform="translate(-70.815 -157.455)" fill="#fff"/>
    <path id="Trazado_10034" data-name="Trazado 10034" d="M334.428,642.349a4.605,4.605,0,0,0-2.412-.692c-1.05,0-1.743.444-1.743,1.16,0,.614.537.918,1.5,1.035l.872.108c1.564.2,2.474.849,2.474,2.055,0,1.4-1.26,2.279-3.244,2.279a5.175,5.175,0,0,1-3.073-.94l.537-.872a3.881,3.881,0,0,0,2.552.8c1.245,0,2.031-.412,2.031-1.19,0-.592-.5-.949-1.541-1.074l-.879-.1c-1.657-.2-2.435-.941-2.435-2.039,0-1.393,1.175-2.232,2.941-2.232a5.393,5.393,0,0,1,2.925.8Z" transform="translate(-79.051 -157.463)" fill="#fff"/>
    <path id="Trazado_10035" data-name="Trazado 10035" d="M355.915,645.137h-1.548l-4.372-10.892h1.33l3.828,9.647,3.836-9.647h1.291Z" transform="translate(-89.035 -154.447)" fill="#fff"/>
    <path id="Trazado_10036" data-name="Trazado 10036" d="M377.39,648.146h-1.159v-1.1a3.254,3.254,0,0,1-2.692,1.245,3.835,3.835,0,0,1,0-7.664,3.275,3.275,0,0,1,2.692,1.245v-1.1h1.159Zm-6.348-3.688a2.632,2.632,0,1,0,2.637-2.738,2.622,2.622,0,0,0-2.637,2.738" transform="translate(-98.395 -157.455)" fill="#fff"/>
    <rect id="Rect치ngulo_177" data-name="Rect치ngulo 177" width="1.167" height="11.203" transform="translate(281.721 479.487)" fill="#fff"/>
    <path id="Trazado_10037" data-name="Trazado 10037" d="M403.309,644.458a3.879,3.879,0,1,1-3.882-3.828,3.773,3.773,0,0,1,3.882,3.828m-6.574,0a2.692,2.692,0,1,0,2.692-2.738,2.644,2.644,0,0,0-2.692,2.738" transform="translate(-110.5 -157.455)" fill="#fff"/>
    <path id="Trazado_10038" data-name="Trazado 10038" d="M419,640.879l-.28,1.144a2.822,2.822,0,0,0-1.276-.3,2.045,2.045,0,0,0-1.976,2.3v4.123h-1.159v-7.367h1.151v1.034a2.576,2.576,0,0,1,2.186-1.182,3.169,3.169,0,0,1,1.354.249" transform="translate(-119.339 -157.455)" fill="#fff"/>
    <path id="Trazado_10039" data-name="Trazado 10039" d="M456.01,635.428h-3.781v9.71h-1.245v-9.71H447.2v-1.182h8.807Z" transform="translate(-134.836 -154.447)" fill="#fff"/>
    <path id="Trazado_10040" data-name="Trazado 10040" d="M469.773,640.879l-.28,1.144a2.822,2.822,0,0,0-1.276-.3,2.045,2.045,0,0,0-1.976,2.3v4.123h-1.159v-7.367h1.151v1.034a2.576,2.576,0,0,1,2.186-1.182,3.169,3.169,0,0,1,1.354.249" transform="translate(-143.259 -157.455)" fill="#fff"/>
    <path id="Trazado_10041" data-name="Trazado 10041" d="M483.179,648.146H482.02v-1.1a3.254,3.254,0,0,1-2.692,1.245,3.835,3.835,0,0,1,0-7.664,3.275,3.275,0,0,1,2.692,1.245v-1.1h1.159Zm-6.348-3.688a2.632,2.632,0,1,0,2.637-2.738,2.622,2.622,0,0,0-2.637,2.738" transform="translate(-148.237 -157.455)" fill="#fff"/>
    <path id="Trazado_10042" data-name="Trazado 10042" d="M501.748,643.579v4.567h-1.159V643.96a1.989,1.989,0,0,0-2.124-2.225,2.169,2.169,0,0,0-2.257,2.257v4.154h-1.167v-7.367h1.151v1.05a2.912,2.912,0,0,1,2.482-1.2,2.852,2.852,0,0,1,3.073,2.949" transform="translate(-157.375 -157.455)" fill="#fff"/>
    <path id="Trazado_10043" data-name="Trazado 10043" d="M517.06,642.349a4.605,4.605,0,0,0-2.411-.692c-1.05,0-1.743.444-1.743,1.16,0,.614.537.918,1.5,1.035l.872.108c1.564.2,2.474.849,2.474,2.055,0,1.4-1.26,2.279-3.244,2.279a5.175,5.175,0,0,1-3.073-.94l.537-.872a3.881,3.881,0,0,0,2.552.8c1.245,0,2.031-.412,2.031-1.19,0-.592-.5-.949-1.54-1.074l-.879-.1c-1.657-.2-2.435-.941-2.435-2.039,0-1.393,1.175-2.232,2.941-2.232a5.394,5.394,0,0,1,2.925.8Z" transform="translate(-165.099 -157.463)" fill="#fff"/>
    <path id="Trazado_10044" data-name="Trazado 10044" d="M534.77,644.458a3.677,3.677,0,0,1-3.68,3.836,3.255,3.255,0,0,1-2.684-1.237v4.2h-1.167v-10.48h1.167v1.089a3.256,3.256,0,0,1,2.684-1.237,3.674,3.674,0,0,1,3.68,3.828m-6.442,0a2.628,2.628,0,1,0,2.622-2.738,2.6,2.6,0,0,0-2.622,2.738" transform="translate(-172.545 -157.455)" fill="#fff"/>
    <path id="Trazado_10045" data-name="Trazado 10045" d="M552.272,644.458a3.879,3.879,0,1,1-3.882-3.828,3.773,3.773,0,0,1,3.882,3.828m-6.574,0a2.692,2.692,0,1,0,2.692-2.738,2.644,2.644,0,0,0-2.692,2.738" transform="translate(-180.684 -157.455)" fill="#fff"/>
    <path id="Trazado_10046" data-name="Trazado 10046" d="M567.967,640.879l-.28,1.144a2.822,2.822,0,0,0-1.276-.3,2.045,2.045,0,0,0-1.976,2.3v4.123h-1.159v-7.367h1.151v1.034a2.576,2.576,0,0,1,2.186-1.182,3.169,3.169,0,0,1,1.354.249" transform="translate(-189.524 -157.455)" fill="#fff"/>
    <path id="Trazado_10047" data-name="Trazado 10047" d="M579.941,639.874h-3.182v3.719c0,1.152.607,1.657,1.463,1.657a2.683,2.683,0,0,0,1.548-.521l.544.879a3.555,3.555,0,0,1-2.186.731c-1.587,0-2.528-.872-2.528-2.723v-3.742h-1.61v-1.05h1.61v-2.342h1.159v2.342h3.182Z" transform="translate(-194.571 -155.501)" fill="#fff"/>
    <path id="Trazado_10048" data-name="Trazado 10048" d="M595.544,648.146h-1.159v-1.1a3.254,3.254,0,0,1-2.692,1.245,3.835,3.835,0,0,1,0-7.664,3.274,3.274,0,0,1,2.692,1.245v-1.1h1.159Zm-6.348-3.688a2.632,2.632,0,1,0,2.637-2.738,2.622,2.622,0,0,0-2.637,2.738" transform="translate(-201.178 -157.455)" fill="#fff"/>
    <path id="Trazado_10049" data-name="Trazado 10049" d="M619.66,643.579v4.567H618.5V643.96a1.991,1.991,0,0,0-2.132-2.225,2.168,2.168,0,0,0-2.256,2.257v4.154h-1.159V643.96a1.989,1.989,0,0,0-2.124-2.225,2.169,2.169,0,0,0-2.257,2.257v4.154h-1.167v-7.367h1.151v1.05a3.206,3.206,0,0,1,5.244.35,3,3,0,0,1,2.778-1.548,2.854,2.854,0,0,1,3.081,2.949" transform="translate(-210.316 -157.455)" fill="#fff"/>
    <path id="Trazado_10050" data-name="Trazado 10050" d="M642.27,644.458a3.879,3.879,0,1,1-3.882-3.828,3.773,3.773,0,0,1,3.882,3.828m-6.574,0a2.692,2.692,0,1,0,2.692-2.738,2.644,2.644,0,0,0-2.692,2.738" transform="translate(-223.087 -157.455)" fill="#fff"/>
    <path id="Trazado_10051" data-name="Trazado 10051" d="M657.619,642.349a4.606,4.606,0,0,0-2.412-.692c-1.05,0-1.743.444-1.743,1.16,0,.614.537.918,1.5,1.035l.872.108c1.564.2,2.474.849,2.474,2.055,0,1.4-1.26,2.279-3.244,2.279a5.175,5.175,0,0,1-3.073-.94l.537-.872a3.881,3.881,0,0,0,2.552.8c1.245,0,2.031-.412,2.031-1.19,0-.592-.5-.949-1.541-1.074l-.879-.1c-1.657-.2-2.435-.941-2.435-2.039,0-1.393,1.175-2.232,2.941-2.232a5.4,5.4,0,0,1,2.926.8Z" transform="translate(-231.323 -157.463)" fill="#fff"/>
    <path id="Trazado_10052" data-name="Trazado 10052" d="M684.929,636.207l-1.042.7a4.011,4.011,0,0,0-3.4-1.75,4.4,4.4,0,0,0,0,8.792,4.006,4.006,0,0,0,3.4-1.743l1.011.747a5.206,5.206,0,0,1-4.411,2.2,5.6,5.6,0,1,1,0-11.2,5.123,5.123,0,0,1,4.442,2.256" transform="translate(-242.097 -154.308)" fill="#fff"/>
    <path id="Trazado_10053" data-name="Trazado 10053" d="M704.619,644.458a3.879,3.879,0,1,1-3.882-3.828,3.773,3.773,0,0,1,3.882,3.828m-6.574,0a2.692,2.692,0,1,0,2.692-2.738,2.644,2.644,0,0,0-2.692,2.738" transform="translate(-252.463 -157.455)" fill="#fff"/>
    <path id="Trazado_10054" data-name="Trazado 10054" d="M722.329,643.579v4.567H721.17V643.96a1.989,1.989,0,0,0-2.124-2.225,2.169,2.169,0,0,0-2.257,2.257v4.154h-1.167v-7.367h1.151v1.05a2.912,2.912,0,0,1,2.482-1.2,2.852,2.852,0,0,1,3.073,2.949" transform="translate(-261.302 -157.455)" fill="#fff"/>
    <path id="Trazado_10055" data-name="Trazado 10055" d="M737.282,638.412h-2.934v6.318h-1.167v-6.318H731.5v-1.05h1.68V636.1c0-1.572.709-2.723,2.451-2.723a3.782,3.782,0,0,1,2.015.552l-.42.973a3.129,3.129,0,0,0-1.517-.435c-.949,0-1.361.607-1.361,1.634v1.26h2.934Z" transform="translate(-268.783 -154.038)" fill="#fff"/>
    <path id="Trazado_10056" data-name="Trazado 10056" d="M747.2,635.232a.809.809,0,0,1-.825.817.821.821,0,0,1,0-1.642.816.816,0,0,1,.825.825m-.242,9.982h-1.167v-7.368h1.167Z" transform="translate(-275.404 -154.523)" fill="#fff"/>
    <path id="Trazado_10057" data-name="Trazado 10057" d="M759.824,648.146h-1.159v-1.1a3.254,3.254,0,0,1-2.692,1.245,3.835,3.835,0,0,1,0-7.664,3.275,3.275,0,0,1,2.692,1.245v-1.1h1.159Zm-6.348-3.688a2.632,2.632,0,1,0,2.637-2.738,2.622,2.622,0,0,0-2.637,2.738" transform="translate(-278.579 -157.455)" fill="#fff"/>
    <path id="Trazado_10058" data-name="Trazado 10058" d="M778.394,643.579v4.567h-1.159V643.96a1.989,1.989,0,0,0-2.124-2.225,2.169,2.169,0,0,0-2.257,2.257v4.154h-1.167v-7.367h1.151v1.05a2.912,2.912,0,0,1,2.482-1.2,2.852,2.852,0,0,1,3.073,2.949" transform="translate(-287.717 -157.455)" fill="#fff"/>
    <path id="Trazado_10059" data-name="Trazado 10059" d="M794.82,641.758l-4.7,5.469h4.769v1.05h-6.31v-.84l4.746-5.477h-4.605v-1.05h6.1Z" transform="translate(-295.676 -157.587)" fill="#fff"/>
    <path id="Trazado_10060" data-name="Trazado 10060" d="M810.974,648.146h-1.159v-1.1a3.254,3.254,0,0,1-2.692,1.245,3.835,3.835,0,0,1,0-7.664,3.274,3.274,0,0,1,2.692,1.245v-1.1h1.159Zm-6.348-3.688a2.632,2.632,0,1,0,2.637-2.738,2.622,2.622,0,0,0-2.637,2.738" transform="translate(-302.679 -157.455)" fill="#fff"/>
    <path id="Trazado_10061" data-name="Trazado 10061" d="M437.409,645.925a2.346,2.346,0,1,1-2.346-2.346,2.346,2.346,0,0,1,2.346,2.346" transform="translate(-128.011 -158.844)" fill="#fff"/>
  </g>
</svg>
