<svg xmlns="http://www.w3.org/2000/svg" width="296.21" height="73" viewBox="0 0 296.21 73">
  <g id="Grupo_325" data-name="Grupo 325" transform="translate(-161.02 -486.723)">
    <path id="Trazado_10000" data-name="Trazado 10000" d="M230.784,476.724l-10.423,13.541h-36.93q-2.968,0-2.969,2.1c0,1.4.99,2.1,2.969,2.1H210q9.488,0,15.859,4.639a15.209,15.209,0,0,1,6.587,12.741,14.734,14.734,0,0,1-6.661,12.526q-6.228,4.563-15.785,4.562H162.219l10.423-13.47H210a11.459,11.459,0,0,0,4.565-.867q2.6-1.079,2.6-2.968,0-1.957-2.6-2.969a13.141,13.141,0,0,0-4.565-.726H183.431q-8.828,0-14.77-4.054-6.372-4.337-6.37-11.511,0-7.238,6.37-11.584,5.935-4.053,14.77-4.054Z" transform="translate(-0.658 9.999)" fill="#00809d"/>
    <rect id="Rect치ngulo_176" data-name="Rect치ngulo 176" width="16.148" height="52.204" transform="translate(238.017 486.723)" fill="#00809d"/>
    <path id="Trazado_10001" data-name="Trazado 10001" d="M458.3,476.724l-25.851,26.571,24.691,25.633H436.5l-17.739-18.681-17.81,18.681H380.385L405,503.294l-25.777-26.571h20.925l18.609,19.4,18.535-19.4Z" transform="translate(-119.778 10)" fill="#00809d"/>
    <path id="Trazado_10002" data-name="Trazado 10002" d="M609.575,531.6l-8.256,10.669H580.559q-10.784,0-17.862-5.995a18.88,18.88,0,0,1-7.089-15.054,17.938,17.938,0,0,1,7-14.681q7-5.615,17.952-5.622h29.015l-8.256,10.723H580.559a13.243,13.243,0,0,0-8.719,2.84,9,9,0,0,0-3.444,7.254,8.7,8.7,0,0,0,3.444,7.116,13.518,13.518,0,0,0,8.719,2.75Z" transform="translate(-216.597 -3.28)" fill="#56565a"/>
    <path id="Trazado_10003" data-name="Trazado 10003" d="M741.584,521.22a18.893,18.893,0,0,1-7.08,15.054q-7.084,5.994-17.865,5.994H704.2q-10.842,0-17.926-5.994a18.893,18.893,0,0,1-7.081-15.054,17.9,17.9,0,0,1,7.026-14.681q7.021-5.614,17.981-5.622h12.442q10.952,0,17.948,5.622a17.937,17.937,0,0,1,7,14.681m-24.945-9.58H704.2a13.334,13.334,0,0,0-8.777,2.84,8.995,8.995,0,0,0-3.44,7.254,8.68,8.68,0,0,0,3.44,7.144A13.724,13.724,0,0,0,704.2,531.6h12.442a13.719,13.719,0,0,0,8.773-2.721,8.683,8.683,0,0,0,3.444-7.144,8.967,8.967,0,0,0-3.469-7.254,13.379,13.379,0,0,0-8.748-2.84" transform="translate(-284.432 -3.28)" fill="#56565a"/>
    <path id="Trazado_10004" data-name="Trazado 10004" d="M169.607,635.875l-.889.6a3.421,3.421,0,0,0-2.9-1.493,3.75,3.75,0,0,0,0,7.5,3.417,3.417,0,0,0,2.9-1.486l.862.637a4.44,4.44,0,0,1-3.762,1.878,4.778,4.778,0,1,1,0-9.556,4.369,4.369,0,0,1,3.789,1.924" transform="translate(0 -86.305)" fill="#56565a"/>
    <path id="Trazado_10005" data-name="Trazado 10005" d="M189.635,643.895a3.308,3.308,0,1,1-3.311-3.265,3.218,3.218,0,0,1,3.311,3.265m-5.607,0a2.3,2.3,0,1,0,2.3-2.336,2.255,2.255,0,0,0-2.3,2.336" transform="translate(-12.076 -89.971)" fill="#56565a"/>
    <path id="Trazado_10006" data-name="Trazado 10006" d="M207.5,643.145v3.9h-.989v-3.57a1.7,1.7,0,0,0-1.812-1.9,1.85,1.85,0,0,0-1.925,1.925v3.543h-1v-6.284h.982v.9a2.484,2.484,0,0,1,2.117-1.022,2.432,2.432,0,0,1,2.621,2.515" transform="translate(-22.374 -89.971)" fill="#56565a"/>
    <path id="Trazado_10007" data-name="Trazado 10007" d="M222.972,642.1a3.928,3.928,0,0,0-2.057-.59c-.9,0-1.487.378-1.487.989,0,.524.458.783,1.281.883l.743.092c1.334.173,2.11.724,2.11,1.752,0,1.194-1.075,1.944-2.767,1.944a4.415,4.415,0,0,1-2.621-.8l.458-.744a3.311,3.311,0,0,0,2.176.684c1.062,0,1.732-.352,1.732-1.015,0-.5-.425-.81-1.314-.916l-.75-.087c-1.414-.172-2.077-.8-2.077-1.739,0-1.188,1-1.9,2.508-1.9a4.6,4.6,0,0,1,2.495.683Z" transform="translate(-31.373 -89.98)" fill="#56565a"/>
    <path id="Trazado_10008" data-name="Trazado 10008" d="M237.259,639.375h-2.714v3.172c0,.982.518,1.414,1.248,1.414a2.285,2.285,0,0,0,1.32-.445l.465.75a3.033,3.033,0,0,1-1.865.624c-1.353,0-2.157-.743-2.157-2.323v-3.192h-1.374v-.9h1.374v-2h.989v2h2.714Z" transform="translate(-39.063 -87.694)" fill="#56565a"/>
    <path id="Trazado_10009" data-name="Trazado 10009" d="M251.311,640.842l-.239.976a2.406,2.406,0,0,0-1.088-.253,1.744,1.744,0,0,0-1.686,1.958v3.517h-.989v-6.284h.982v.882a2.2,2.2,0,0,1,1.865-1.009,2.7,2.7,0,0,1,1.155.212" transform="translate(-47.365 -89.971)" fill="#56565a"/>
    <path id="Trazado_10010" data-name="Trazado 10010" d="M264.921,644.572a2.856,2.856,0,0,1-5.707,0v-3.663h.989v3.57a1.862,1.862,0,1,0,3.723,0v-3.57h1Z" transform="translate(-53.9 -90.124)" fill="#56565a"/>
    <path id="Trazado_10011" data-name="Trazado 10011" d="M277.817,635.111a.69.69,0,0,1-.7.7.7.7,0,0,1,0-1.4.7.7,0,0,1,.7.7m-.206,8.514h-1V637.34h1Z" transform="translate(-63.343 -86.555)" fill="#56565a"/>
    <path id="Trazado_10012" data-name="Trazado 10012" d="M294.668,643.145v3.9h-.989v-3.57a1.7,1.7,0,0,0-1.818-1.9,1.85,1.85,0,0,0-1.924,1.925v3.543h-.989v-3.57a1.7,1.7,0,0,0-1.812-1.9,1.85,1.85,0,0,0-1.925,1.925v3.543h-1v-6.284h.982v.9a2.734,2.734,0,0,1,4.473.3,2.559,2.559,0,0,1,2.37-1.321,2.434,2.434,0,0,1,2.628,2.515" transform="translate(-67.624 -89.971)" fill="#56565a"/>
    <path id="Trazado_10013" data-name="Trazado 10013" d="M317.938,643.895a3.308,3.308,0,1,1-3.311-3.265,3.218,3.218,0,0,1,3.311,3.265m-5.607,0a2.3,2.3,0,1,0,2.3-2.336,2.255,2.255,0,0,0-2.3,2.336" transform="translate(-82.503 -89.971)" fill="#56565a"/>
    <path id="Trazado_10014" data-name="Trazado 10014" d="M333.6,642.1a3.928,3.928,0,0,0-2.057-.59c-.9,0-1.487.378-1.487.989,0,.524.458.783,1.281.883l.743.092c1.334.173,2.11.724,2.11,1.752,0,1.194-1.075,1.944-2.767,1.944a4.415,4.415,0,0,1-2.621-.8l.458-.744a3.311,3.311,0,0,0,2.176.684c1.062,0,1.732-.352,1.732-1.015,0-.5-.425-.81-1.314-.916l-.75-.087c-1.414-.172-2.077-.8-2.077-1.739,0-1.188,1-1.9,2.508-1.9a4.6,4.6,0,0,1,2.495.683Z" transform="translate(-92.099 -89.98)" fill="#56565a"/>
    <path id="Trazado_10015" data-name="Trazado 10015" d="M355.044,643.536h-1.321l-3.729-9.29h1.134l3.265,8.229,3.272-8.229h1.1Z" transform="translate(-103.731 -86.467)" fill="#56565a"/>
    <path id="Trazado_10016" data-name="Trazado 10016" d="M376.282,647.04h-.989V646.1a2.776,2.776,0,0,1-2.3,1.062,3.271,3.271,0,0,1,0-6.537,2.793,2.793,0,0,1,2.3,1.062v-.936h.989Zm-5.415-3.145a2.245,2.245,0,1,0,2.25-2.336,2.237,2.237,0,0,0-2.25,2.336" transform="translate(-114.635 -89.971)" fill="#56565a"/>
    <rect id="Rect치ngulo_177" data-name="Rect치ngulo 177" width="0.996" height="9.556" transform="translate(263.972 547.513)" fill="#56565a"/>
    <path id="Trazado_10017" data-name="Trazado 10017" d="M402.168,643.895a3.308,3.308,0,1,1-3.311-3.265,3.218,3.218,0,0,1,3.311,3.265m-5.607,0a2.3,2.3,0,1,0,2.3-2.336,2.255,2.255,0,0,0-2.3,2.336" transform="translate(-128.739 -89.971)" fill="#56565a"/>
    <path id="Trazado_10018" data-name="Trazado 10018" d="M418.315,640.842l-.239.976a2.406,2.406,0,0,0-1.088-.253,1.744,1.744,0,0,0-1.686,1.958v3.517h-.989v-6.284h.982v.882a2.2,2.2,0,0,1,1.865-1.009,2.7,2.7,0,0,1,1.155.212" transform="translate(-139.037 -89.971)" fill="#56565a"/>
    <path id="Trazado_10019" data-name="Trazado 10019" d="M454.715,635.254H451.49v8.282h-1.062v-8.282H447.2v-1.009h7.512Z" transform="translate(-157.091 -86.467)" fill="#56565a"/>
    <path id="Trazado_10020" data-name="Trazado 10020" d="M469.084,640.842l-.239.976a2.406,2.406,0,0,0-1.088-.253,1.744,1.744,0,0,0-1.686,1.958v3.517h-.989v-6.284h.982v.882a2.2,2.2,0,0,1,1.865-1.009,2.7,2.7,0,0,1,1.155.212" transform="translate(-166.905 -89.971)" fill="#56565a"/>
    <path id="Trazado_10021" data-name="Trazado 10021" d="M482.071,647.04h-.989V646.1a2.776,2.776,0,0,1-2.3,1.062,3.271,3.271,0,0,1,0-6.537,2.793,2.793,0,0,1,2.3,1.062v-.936h.989Zm-5.415-3.145a2.245,2.245,0,1,0,2.25-2.336,2.237,2.237,0,0,0-2.25,2.336" transform="translate(-172.705 -89.971)" fill="#56565a"/>
    <path id="Trazado_10022" data-name="Trazado 10022" d="M500.762,643.145v3.9h-.989v-3.57a1.7,1.7,0,0,0-1.812-1.9,1.85,1.85,0,0,0-1.925,1.925v3.543h-1v-6.284h.982v.9a2.484,2.484,0,0,1,2.117-1.022,2.432,2.432,0,0,1,2.621,2.515" transform="translate(-183.35 -89.971)" fill="#56565a"/>
    <path id="Trazado_10023" data-name="Trazado 10023" d="M516.233,642.1a3.928,3.928,0,0,0-2.057-.59c-.9,0-1.487.378-1.487.989,0,.524.458.783,1.281.883l.743.092c1.334.173,2.11.724,2.11,1.752,0,1.194-1.075,1.944-2.767,1.944a4.415,4.415,0,0,1-2.621-.8l.458-.744a3.311,3.311,0,0,0,2.177.684c1.062,0,1.732-.352,1.732-1.015,0-.5-.425-.81-1.314-.916l-.75-.087c-1.414-.172-2.077-.8-2.077-1.739,0-1.188,1-1.9,2.508-1.9a4.6,4.6,0,0,1,2.495.683Z" transform="translate(-192.349 -89.98)" fill="#56565a"/>
    <path id="Trazado_10024" data-name="Trazado 10024" d="M533.663,643.895a3.136,3.136,0,0,1-3.139,3.272,2.776,2.776,0,0,1-2.289-1.056v3.583h-1v-8.939h1v.929a2.777,2.777,0,0,1,2.289-1.055,3.134,3.134,0,0,1,3.139,3.265m-5.495,0a2.242,2.242,0,1,0,2.237-2.336,2.219,2.219,0,0,0-2.237,2.336" transform="translate(-201.024 -89.971)" fill="#56565a"/>
    <path id="Trazado_10025" data-name="Trazado 10025" d="M551.131,643.895a3.308,3.308,0,1,1-3.311-3.265,3.218,3.218,0,0,1,3.311,3.265m-5.607,0a2.3,2.3,0,1,0,2.3-2.336,2.255,2.255,0,0,0-2.3,2.336" transform="translate(-210.507 -89.971)" fill="#56565a"/>
    <path id="Trazado_10026" data-name="Trazado 10026" d="M567.278,640.842l-.239.976a2.406,2.406,0,0,0-1.088-.253,1.744,1.744,0,0,0-1.686,1.958v3.517h-.989v-6.284h.982v.882a2.2,2.2,0,0,1,1.865-1.009,2.7,2.7,0,0,1,1.155.212" transform="translate(-220.805 -89.971)" fill="#56565a"/>
    <path id="Trazado_10027" data-name="Trazado 10027" d="M579.065,639.375h-2.714v3.172c0,.982.518,1.414,1.248,1.414a2.288,2.288,0,0,0,1.321-.445l.464.75a3.032,3.032,0,0,1-1.865.624c-1.353,0-2.157-.743-2.157-2.323v-3.192h-1.374v-.9h1.374v-2h.989v2h2.714Z" transform="translate(-226.686 -87.694)" fill="#56565a"/>
    <path id="Trazado_10028" data-name="Trazado 10028" d="M594.436,647.04h-.989V646.1a2.776,2.776,0,0,1-2.3,1.062,3.271,3.271,0,0,1,0-6.537,2.793,2.793,0,0,1,2.3,1.062v-.936h.989Zm-5.415-3.145a2.245,2.245,0,1,0,2.25-2.336,2.237,2.237,0,0,0-2.25,2.336" transform="translate(-234.384 -89.971)" fill="#56565a"/>
    <path id="Trazado_10029" data-name="Trazado 10029" d="M617.859,643.145v3.9h-.989v-3.57a1.7,1.7,0,0,0-1.818-1.9,1.85,1.85,0,0,0-1.924,1.925v3.543h-.989v-3.57a1.7,1.7,0,0,0-1.812-1.9A1.85,1.85,0,0,0,608.4,643.5v3.543h-1v-6.284h.982v.9a2.734,2.734,0,0,1,4.472.3,2.559,2.559,0,0,1,2.37-1.321,2.434,2.434,0,0,1,2.628,2.515" transform="translate(-245.029 -89.971)" fill="#56565a"/>
    <path id="Trazado_10030" data-name="Trazado 10030" d="M641.129,643.895a3.308,3.308,0,1,1-3.311-3.265,3.218,3.218,0,0,1,3.311,3.265m-5.607,0a2.3,2.3,0,1,0,2.3-2.336,2.255,2.255,0,0,0-2.3,2.336" transform="translate(-259.908 -89.971)" fill="#56565a"/>
    <path id="Trazado_10031" data-name="Trazado 10031" d="M656.792,642.1a3.928,3.928,0,0,0-2.057-.59c-.9,0-1.487.378-1.487.989,0,.524.458.783,1.281.883l.743.092c1.334.173,2.11.724,2.11,1.752,0,1.194-1.075,1.944-2.767,1.944a4.415,4.415,0,0,1-2.621-.8l.458-.744a3.311,3.311,0,0,0,2.176.684c1.062,0,1.732-.352,1.732-1.015,0-.5-.425-.81-1.314-.916l-.75-.087c-1.414-.172-2.077-.8-2.077-1.739,0-1.188,1-1.9,2.508-1.9a4.6,4.6,0,0,1,2.5.683Z" transform="translate(-269.504 -89.98)" fill="#56565a"/>
    <path id="Trazado_10032" data-name="Trazado 10032" d="M683.449,635.875l-.889.6a3.421,3.421,0,0,0-2.9-1.493,3.75,3.75,0,0,0,0,7.5,3.417,3.417,0,0,0,2.9-1.486l.862.637a4.44,4.44,0,0,1-3.763,1.878,4.778,4.778,0,1,1,0-9.556,4.369,4.369,0,0,1,3.789,1.924" transform="translate(-282.057 -86.305)" fill="#56565a"/>
    <path id="Trazado_10033" data-name="Trazado 10033" d="M703.478,643.895a3.308,3.308,0,1,1-3.311-3.265,3.218,3.218,0,0,1,3.311,3.265m-5.607,0a2.3,2.3,0,1,0,2.3-2.336,2.255,2.255,0,0,0-2.3,2.336" transform="translate(-294.133 -89.971)" fill="#56565a"/>
    <path id="Trazado_10034" data-name="Trazado 10034" d="M721.343,643.145v3.9h-.989v-3.57a1.7,1.7,0,0,0-1.812-1.9,1.85,1.85,0,0,0-1.925,1.925v3.543h-1v-6.284h.982v.9a2.484,2.484,0,0,1,2.117-1.022,2.432,2.432,0,0,1,2.621,2.515" transform="translate(-304.431 -89.971)" fill="#56565a"/>
    <path id="Trazado_10035" data-name="Trazado 10035" d="M736.432,637.671h-2.5v5.389h-1v-5.389H731.5v-.9h1.433V635.7c0-1.341.6-2.323,2.09-2.323a3.225,3.225,0,0,1,1.719.471l-.358.83a2.67,2.67,0,0,0-1.294-.371c-.81,0-1.161.517-1.161,1.393v1.075h2.5Z" transform="translate(-313.147 -85.991)" fill="#56565a"/>
    <path id="Trazado_10036" data-name="Trazado 10036" d="M746.954,635.111a.69.69,0,0,1-.7.7.7.7,0,0,1,0-1.4.7.7,0,0,1,.7.7m-.206,8.514h-1V637.34h1Z" transform="translate(-320.86 -86.555)" fill="#56565a"/>
    <path id="Trazado_10037" data-name="Trazado 10037" d="M758.717,647.04h-.989V646.1a2.776,2.776,0,0,1-2.3,1.062,3.271,3.271,0,0,1,0-6.537,2.793,2.793,0,0,1,2.3,1.062v-.936h.989Zm-5.415-3.145a2.245,2.245,0,1,0,2.25-2.336,2.237,2.237,0,0,0-2.25,2.336" transform="translate(-324.56 -89.971)" fill="#56565a"/>
    <path id="Trazado_10038" data-name="Trazado 10038" d="M777.408,643.145v3.9h-.989v-3.57a1.7,1.7,0,0,0-1.812-1.9,1.85,1.85,0,0,0-1.925,1.925v3.543h-1v-6.284h.982v.9a2.484,2.484,0,0,1,2.117-1.022,2.433,2.433,0,0,1,2.621,2.515" transform="translate(-335.206 -89.971)" fill="#56565a"/>
    <path id="Trazado_10039" data-name="Trazado 10039" d="M793.9,641.633l-4.008,4.665h4.068v.9h-5.382v-.717l4.048-4.672H788.7v-.9h5.2Z" transform="translate(-344.479 -90.125)" fill="#56565a"/>
    <path id="Trazado_10040" data-name="Trazado 10040" d="M809.867,647.04h-.989V646.1a2.776,2.776,0,0,1-2.3,1.062,3.271,3.271,0,0,1,0-6.537,2.793,2.793,0,0,1,2.3,1.062v-.936h.989Zm-5.415-3.145a2.245,2.245,0,1,0,2.25-2.336,2.237,2.237,0,0,0-2.25,2.336" transform="translate(-352.637 -89.971)" fill="#56565a"/>
    <path id="Trazado_10041" data-name="Trazado 10041" d="M436.72,645.58a2,2,0,1,1-2-2,2,2,0,0,1,2,2" transform="translate(-149.14 -91.59)" fill="#56565a"/>
  </g>
</svg>
